<?xml version="1.0" encoding="utf-8"?>
<!-- Generator: Adobe Illustrator 21.1.0, SVG Export Plug-In . SVG Version: 6.00 Build 0)  -->
<svg version="1.1" id="Layer_1" xmlns="http://www.w3.org/2000/svg" xmlns:xlink="http://www.w3.org/1999/xlink" x="0px" y="0px"
	 viewBox="0 0 300 200" style="enable-background:new 0 0 300 200;" xml:space="preserve">
<style type="text/css">
	.st0{fill:url(#SVGID_1_);}
	.st1{fill:url(#SVGID_2_);}
	.st2{fill:url(#SVGID_3_);}
	.st3{fill:url(#SVGID_4_);}
	.st4{fill:url(#SVGID_5_);}
</style>
<g>
	<g>
		<linearGradient id="SVGID_1_" gradientUnits="userSpaceOnUse" x1="22.6876" y1="86.0705" x2="76.8274" y2="115.1685">
			<stop  offset="0" style="stop-color:#FFFFFF"/>
			<stop  offset="0" style="stop-color:#C43F00"/>
			<stop  offset="1" style="stop-color:#FA6835"/>
		</linearGradient>
		<path class="st0" d="M47.9,111.2c-2.9-0.1-5.7-0.6-8.4-1.5c-2.7-0.9-5.1-2.2-7.2-4.1c-2.1-1.9-3.8-4.2-5.1-7.1
			c-1.3-2.9-1.9-6.4-1.9-10.6c0-2.7,0.3-5.2,1-7.3c0.6-2.2,1.5-4.1,2.6-5.8c1.1-1.7,2.4-3.1,3.9-4.3c1.5-1.2,3.1-2.2,4.8-3
			c1.7-0.8,3.5-1.3,5.4-1.7c1.9-0.4,3.7-0.6,5.6-0.6c4.7,0,9.7,1.2,15,3.7c1.5,0.7,2.7,1,3.7,1c1.7,0,2.6-1,2.8-2.9h1.3v18.5h-1.3
			c-0.8-3.1-1.9-5.7-3.3-8c-1.4-2.3-3-4.2-4.9-5.8c-1.9-1.5-4-2.7-6.4-3.5c-2.4-0.8-4.9-1.2-7.7-1.2c-1.4,0-2.7,0.1-4.1,0.4
			c-1.4,0.3-2.6,0.8-3.7,1.6c-1.1,0.7-2,1.7-2.6,3c-0.7,1.2-1,2.8-1,4.7c0,2,0.4,3.6,1.1,4.7s1.8,2.1,3,2.8c1.2,0.7,2.6,1.1,4.2,1.4
			c1.6,0.2,3.2,0.4,4.7,0.5c8.8,0.4,15.2,2.6,19.4,6.5c4.2,3.9,6.2,9.6,6.2,17c0,3.2-0.3,6-0.9,8.5c-0.6,2.5-1.5,4.7-2.6,6.6
			c-1.1,1.9-2.4,3.6-4,4.9c-1.5,1.4-3.2,2.5-5.1,3.3c-1.9,0.9-3.8,1.5-5.9,1.9c-2.1,0.4-4.3,0.6-6.5,0.6c-5.9,0-11.3-1.3-16.2-3.9
			c-1.1-0.6-2.1-0.9-3-0.9c-1.5,0-2.4,1-2.7,3H27v-24.1h1.3c0.4,3.6,1.3,6.9,2.6,9.8c1.3,2.9,2.9,5.5,4.9,7.6
			c1.9,2.1,4.1,3.8,6.6,4.9c2.5,1.2,5.1,1.7,7.8,1.7c4.6,0,8.2-1,10.7-3c2.5-2,3.8-4.7,3.8-8.1c0-1.6-0.2-3-0.6-4.2
			c-0.4-1.2-1-2.2-1.8-3c-0.8-0.8-1.7-1.5-2.7-2c-1.1-0.5-2.2-0.9-3.4-1.3c-1.2-0.3-2.6-0.5-4-0.7C50.8,111.3,49.3,111.2,47.9,111.2
			z"/>
		<linearGradient id="SVGID_2_" gradientUnits="userSpaceOnUse" x1="67.6386" y1="82.2132" x2="131.44" y2="116.5038">
			<stop  offset="0" style="stop-color:#FFFFFF"/>
			<stop  offset="0" style="stop-color:#C43F00"/>
			<stop  offset="1" style="stop-color:#FA6835"/>
		</linearGradient>
		<path class="st1" d="M81.9,131.8h4v1.9h-9.4v-1.9h4.1V78.1L75.8,67h23.3l21.7,51.8V68.8h-4V67h9.4v1.9h-4v64.8h-18.4L81.9,81.3
			V131.8z"/>
		<linearGradient id="SVGID_3_" gradientUnits="userSpaceOnUse" x1="129.6627" y1="90.3766" x2="190.9319" y2="123.3063">
			<stop  offset="0" style="stop-color:#FFFFFF"/>
			<stop  offset="0" style="stop-color:#C43F00"/>
			<stop  offset="1" style="stop-color:#FA6835"/>
		</linearGradient>
		<path class="st2" d="M154.8,115.1h-18.1l-4.4,16.7h3.9v1.9h-9.4v-1.9h4.1l16.6-63h-5.3V67c7.3,0,14.1-1.2,20.4-3.7l18.1,68.5h4.6
			v1.9h-30.6v-1.9h4.5L154.8,115.1z M154.4,113.3l-8.6-32.4l-8.5,32.4H154.4z"/>
		<linearGradient id="SVGID_4_" gradientUnits="userSpaceOnUse" x1="177.4687" y1="86.9571" x2="227.2209" y2="113.6969">
			<stop  offset="0" style="stop-color:#FFFFFF"/>
			<stop  offset="0" style="stop-color:#C43F00"/>
			<stop  offset="1" style="stop-color:#FA6835"/>
		</linearGradient>
		<path class="st3" d="M216.5,67v1.9h-4.1v63h4.1v1.9h-28.3v-1.9h4v-63h-4V67H216.5z"/>
		<linearGradient id="SVGID_5_" gradientUnits="userSpaceOnUse" x1="209.3558" y1="86.9571" x2="273.7333" y2="121.5574">
			<stop  offset="0" style="stop-color:#FFFFFF"/>
			<stop  offset="0" style="stop-color:#C43F00"/>
			<stop  offset="1" style="stop-color:#FA6835"/>
		</linearGradient>
		<path class="st4" d="M248.4,131.8c2.7,0,5.1-0.7,7.3-2c2.2-1.3,4-3.1,5.5-5.4c1.5-2.3,2.7-5.1,3.5-8.2c0.8-3.2,1.2-6.6,1.2-10.3
			h1.3v27.8h-47.1v-1.9h4v-63h-4V67h28.3v1.9h-4v63H248.4z"/>
	</g>
	<g>
		<path d="M52.1,99.6c2.8,0.3,4.9,0.8,6.4,1.8c1.4,0.9,2.2,2.3,2.2,4.1c0,2-1,3.5-3,4.5c-2,1-5,1.5-9,1.5H32.1v-0.6h2V89.9h-2v-0.6
			h16.3c1.5,0,2.9,0.1,4.3,0.2s2.6,0.4,3.6,0.8c1,0.4,1.8,0.9,2.5,1.6c0.6,0.7,0.9,1.6,0.9,2.7c0,1.4-0.6,2.6-1.9,3.4
			C56.5,98.9,54.7,99.4,52.1,99.6z M50.6,94.4c0-0.7-0.1-1.3-0.3-1.8c-0.2-0.5-0.5-1-1-1.4c-0.4-0.4-1-0.7-1.6-0.9
			c-0.6-0.2-1.4-0.3-2.2-0.3h-1.3v9.4h1.3c0.8,0,1.6-0.1,2.2-0.4c0.6-0.2,1.2-0.6,1.6-1c0.4-0.4,0.7-1,1-1.6
			C50.5,95.8,50.6,95.1,50.6,94.4z M50.6,105.3c0-1.8-0.4-3.2-1.3-4.1c-0.8-1-2.1-1.4-3.8-1.4h-1.3v11.1h1.3c1.7,0,2.9-0.5,3.8-1.4
			C50.2,108.6,50.6,107.2,50.6,105.3z"/>
		<path d="M95.2,106h0.7v1.2c0,0.8-0.2,1.6-0.5,2.2c-0.3,0.6-0.8,1.1-1.4,1.5c-0.6,0.4-1.3,0.7-2.1,0.9c-0.8,0.2-1.6,0.3-2.5,0.3
			c-1.8,0-3.3-0.4-4.2-1.2c-1-0.8-1.7-1.9-2-3.5c-0.2-0.7-0.4-1.4-0.6-1.9c-0.2-0.6-0.6-1.1-1-1.5c-0.4-0.4-0.9-0.7-1.5-0.9
			c-0.6-0.2-1.4-0.3-2.3-0.3h-2v8h2v0.6H63.6v-0.6h2V89.9h-2v-0.6h15.8c1.1,0,2.3,0,3.4,0.1s2.2,0.2,3.2,0.3s1.9,0.4,2.8,0.7
			c0.8,0.3,1.6,0.7,2.2,1.2c0.6,0.5,1.1,1.1,1.4,1.8c0.3,0.7,0.5,1.6,0.5,2.6c0,1-0.2,1.9-0.6,2.6c-0.4,0.7-0.9,1.4-1.6,1.9
			c-0.7,0.5-1.4,0.9-2.3,1.2s-1.8,0.5-2.7,0.7c0.7,0.1,1.5,0.2,2.2,0.4c0.7,0.2,1.4,0.4,2,0.8c0.6,0.3,1.1,0.8,1.5,1.3
			c0.4,0.5,0.7,1.2,0.8,2c0.1,0.5,0.3,0.9,0.5,1.2c0.3,0.2,0.6,0.4,1.2,0.4c0.4,0,0.7-0.1,0.9-0.4c0.3-0.2,0.4-0.6,0.4-1.2V106z
			 M75.7,89.9v12.3h2c0.9,0,1.7-0.2,2.4-0.5c0.6-0.3,1.2-0.8,1.6-1.4c0.4-0.6,0.7-1.2,0.8-2c0.2-0.7,0.3-1.5,0.3-2.3
			c0-1-0.1-1.8-0.3-2.6c-0.2-0.8-0.5-1.4-1-1.9c-0.4-0.5-1-0.9-1.6-1.2c-0.6-0.3-1.4-0.4-2.2-0.4H75.7z"/>
		<path d="M125,100.4c0,1.9-0.3,3.6-1,5.1c-0.7,1.5-1.7,2.7-2.9,3.7c-1.3,1-2.7,1.7-4.5,2.2c-1.7,0.5-3.6,0.7-5.7,0.7
			c-2,0-3.9-0.2-5.7-0.7c-1.7-0.5-3.2-1.2-4.5-2.2c-1.3-1-2.2-2.2-2.9-3.7c-0.7-1.5-1-3.1-1-5.1c0-1.9,0.4-3.6,1.1-5.1
			c0.7-1.5,1.7-2.7,2.9-3.7c1.2-1,2.7-1.7,4.5-2.2c1.7-0.5,3.6-0.7,5.7-0.7c2,0,3.9,0.2,5.7,0.7c1.7,0.5,3.2,1.2,4.5,2.2
			c1.2,1,2.2,2.2,2.9,3.7C124.7,96.8,125,98.5,125,100.4z M110.9,89.3c-1.4,0-2.5,0.7-3.1,2c-0.6,1.4-0.9,4.3-0.9,8.7
			c0,4.9,0.3,8,0.9,9.4c0.6,1.4,1.6,2,3.1,2s2.5-0.7,3.1-2c0.6-1.4,0.9-4.5,0.9-9.4c0-4.5-0.3-7.4-0.9-8.7
			C113.4,90,112.3,89.3,110.9,89.3z"/>
		<path d="M154.8,100.4c0,1.9-0.3,3.6-1,5.1c-0.7,1.5-1.7,2.7-2.9,3.7c-1.3,1-2.7,1.7-4.5,2.2c-1.7,0.5-3.6,0.7-5.7,0.7
			c-2,0-3.9-0.2-5.7-0.7c-1.7-0.5-3.2-1.2-4.5-2.2c-1.3-1-2.2-2.2-2.9-3.7c-0.7-1.5-1-3.1-1-5.1c0-1.9,0.4-3.6,1.1-5.1
			c0.7-1.5,1.7-2.7,2.9-3.7c1.2-1,2.7-1.7,4.5-2.2c1.7-0.5,3.6-0.7,5.7-0.7c2,0,3.9,0.2,5.7,0.7c1.7,0.5,3.2,1.2,4.5,2.2
			c1.2,1,2.2,2.2,2.9,3.7C154.5,96.8,154.8,98.5,154.8,100.4z M140.7,89.3c-1.4,0-2.5,0.7-3.1,2c-0.6,1.4-0.9,4.3-0.9,8.7
			c0,4.9,0.3,8,0.9,9.4c0.6,1.4,1.6,2,3.1,2c1.4,0,2.5-0.7,3.1-2c0.6-1.4,0.9-4.5,0.9-9.4c0-4.5-0.3-7.4-0.9-8.7
			C143.2,90,142.2,89.3,140.7,89.3z"/>
		<path d="M169.2,103v7.9h2v0.6h-14.1v-0.6h2V89.9h-2v-0.6h14.1v0.6h-2v12.2l10.4-9.5c0.6-0.6,0.9-1,0.9-1.4c0-0.2-0.1-0.4-0.2-0.6
			c-0.2-0.2-0.4-0.3-0.8-0.4c-0.4-0.1-0.8-0.2-1.4-0.2c-0.6-0.1-1.3-0.1-2.1-0.1v-0.6h13.4v0.6c-2,0-3.8,0.3-5.4,0.9
			c-1.6,0.6-3.1,1.5-4.5,2.8l-0.9,0.8l10.4,16.5h2.5v0.6h-16.3v-0.6h2.2l-6.1-9.7L169.2,103z"/>
		<path d="M205.4,110.9c1.3,0,2.6-0.2,3.6-0.7c1.1-0.4,2-1,2.7-1.8c0.8-0.8,1.3-1.7,1.7-2.7c0.4-1.1,0.6-2.2,0.6-3.4h0.7v9.2h-23.5
			v-0.6h2V89.9h-2v-0.6h14.1v0.6h-2v20.9H205.4z"/>
		<path d="M223.5,103l-7-13h-2v-0.6h15.3v0.6h-2.1l5.3,10.5l5.4-10.5h-2.1v-0.6h4.8v0.6h-2l-5.4,10.7v10.2h2v0.6h-14.1v-0.6h2V103z"
			/>
		<path d="M242.9,110.9h2v0.6h-4.7v-0.6h2V93l-2.3-3.7h11.6l10.8,17.2V89.9h-2v-0.6h4.7v0.6h-2v21.6h-9.2l-10.9-17.4V110.9z"/>
	</g>
	<path d="M13.1,98.6h0.3c0.3,0,0.5-0.1,0.8-0.2c0.2-0.2,0.4-0.4,0.6-0.7c0.2-0.3,0.3-0.7,0.4-1.1c0.1-0.4,0.1-0.9,0.1-1.5
		c0-0.4,0-0.9-0.1-1.3c0-0.4-0.1-0.8-0.1-1.3c0-0.4-0.1-0.9-0.1-1.4c0-0.5-0.1-1-0.1-1.5c0-4.6,1.5-6.9,4.6-6.9h2v0.6h-0.7
		c-0.3,0-0.6,0.1-0.8,0.3c-0.2,0.2-0.4,0.5-0.5,0.8s-0.2,0.8-0.3,1.3c-0.1,0.5-0.1,1-0.1,1.6c0,0.5,0,0.9,0,1.4
		c0,0.5,0.1,0.9,0.1,1.4c0,0.4,0.1,0.9,0.1,1.4c0,0.5,0,0.9,0,1.4c0,1.1-0.1,2-0.2,2.7c-0.1,0.7-0.4,1.3-0.7,1.7
		c-0.3,0.4-0.7,0.8-1.1,1c-0.4,0.2-0.9,0.4-1.5,0.6c0.6,0.2,1.1,0.3,1.5,0.6c0.4,0.2,0.8,0.6,1.1,1c0.3,0.4,0.5,1,0.7,1.7
		c0.1,0.7,0.2,1.6,0.2,2.7c0,0.5,0,0.9,0,1.4c0,0.5-0.1,0.9-0.1,1.3c0,0.4-0.1,0.9-0.1,1.4c0,0.5,0,0.9,0,1.4c0,0.6,0,1.1,0.1,1.6
		c0.1,0.5,0.2,0.9,0.3,1.3c0.1,0.4,0.3,0.6,0.5,0.8c0.2,0.2,0.5,0.3,0.8,0.3h0.7v0.6h-2c-3,0-4.6-2.3-4.6-6.9c0-0.6,0-1.1,0.1-1.5
		c0-0.5,0.1-0.9,0.1-1.4c0-0.4,0.1-0.8,0.1-1.3c0-0.4,0.1-0.8,0.1-1.3c0-0.6,0-1.1-0.1-1.5c-0.1-0.4-0.2-0.8-0.4-1.1
		c-0.2-0.3-0.4-0.5-0.6-0.6c-0.2-0.1-0.5-0.2-0.8-0.2h-0.3V98.6z"/>
	<path d="M287,101.3h-0.3c-0.3,0-0.6,0.2-0.8,0.5c-0.3,0.3-0.5,0.8-0.7,1.4c-0.2,0.6-0.3,1.4-0.4,2.3c-0.1,0.9-0.2,2-0.2,3.1
		c0,0.9,0,1.8,0.1,2.7c0,0.9,0.1,1.8,0.1,2.7c0,0.9,0.1,1.8,0.1,2.8c0,1,0.1,2,0.1,3.2c0,9.6-1.6,14.4-4.8,14.4H278v-1.3h0.7
		c0.3,0,0.6-0.2,0.9-0.6c0.2-0.4,0.4-1,0.6-1.7c0.1-0.7,0.3-1.6,0.3-2.6c0.1-1,0.1-2.1,0.1-3.3c0-1,0-2,0-2.9c0-0.9-0.1-1.9-0.1-2.8
		c0-0.9-0.1-1.9-0.1-2.8c0-1,0-1.9,0-3c0-2.2,0.1-4.1,0.2-5.5c0.2-1.4,0.4-2.6,0.7-3.5c0.3-0.9,0.7-1.6,1.2-2.1
		c0.5-0.5,1-0.9,1.6-1.2c-0.6-0.3-1.2-0.7-1.6-1.2c-0.5-0.5-0.8-1.2-1.2-2c-0.3-0.9-0.5-2.1-0.7-3.5c-0.2-1.4-0.2-3.3-0.2-5.6
		c0-1,0-2,0-2.9c0-0.9,0.1-1.9,0.1-2.8c0-0.9,0.1-1.9,0.1-2.8c0-1,0-1.9,0-3c0-1.2,0-2.3-0.1-3.3c-0.1-1-0.2-1.9-0.3-2.6
		c-0.1-0.7-0.3-1.3-0.6-1.7c-0.2-0.4-0.5-0.6-0.9-0.6H278v-1.3h2.1c3.2,0,4.8,4.8,4.8,14.4c0,1.2,0,2.2-0.1,3.2c0,1-0.1,1.9-0.1,2.8
		s-0.1,1.8-0.1,2.6c0,0.9-0.1,1.7-0.1,2.6c0,1.2,0.1,2.2,0.2,3.1c0.1,0.9,0.2,1.6,0.4,2.2c0.2,0.6,0.4,1,0.7,1.3
		c0.3,0.3,0.5,0.4,0.8,0.4h0.3V101.3z"/>
</g>
</svg>
